<svg width="280" height="273" viewBox="0 0 280 273" fill="none" xmlns="http://www.w3.org/2000/svg">
<path d="M9.6173 156.215C9.6173 156.215 8.32984 86.328 95.02 98.0251C168.424 107.922 142.397 111.728 188.165 109.068C198.859 108.45 240.675 93.9141 257.537 106.355C278.727 121.984 299.613 176.304 246.486 232.479C183.91 298.641 47.5711 233.079 47.5711 233.079C47.5711 233.079 7.49833 208.028 9.6173 156.215Z" fill="#B3FFD1"/>
<path d="M142.282 273C200.578 273 247.837 260.838 247.837 245.835C247.837 230.832 200.578 218.67 142.282 218.67C83.9853 218.67 36.7266 230.832 36.7266 245.835C36.7266 260.838 83.9853 273 142.282 273Z" fill="#0E7F3D"/>
<path d="M142.281 264.957C206.089 264.957 257.815 252.795 257.815 237.792C257.815 222.789 206.089 210.627 142.281 210.627C78.474 210.627 26.748 222.789 26.748 237.792C26.748 252.795 78.474 264.957 142.281 264.957Z" fill="#32B768"/>
<path d="M203.177 210.423C203.177 236.593 166.18 234.068 120.537 234.068C74.8946 234.068 37.8975 236.584 37.8975 210.423C37.8975 184.261 74.8946 163.043 120.537 163.043C166.171 163.052 203.177 184.261 203.177 210.423Z" fill="#F0C7A9"/>
<mask id="mask0_1069_859" style="mask-type:alpha" maskUnits="userSpaceOnUse" x="37" y="163" width="167" height="72">
<path d="M203.177 210.421C203.177 236.591 166.18 234.066 120.537 234.066C74.8946 234.066 37.8975 236.582 37.8975 210.421C37.8975 184.259 74.8946 163.041 120.537 163.041C166.171 163.05 203.177 184.259 203.177 210.421Z" fill="#FFC5BB"/>
</mask>
<g mask="url(#mask0_1069_859)">
<path d="M69.5038 198.587H68.4756C66.5712 198.587 65.0244 197.038 65.0244 195.13V155.578C65.0244 153.671 66.5712 152.121 68.4756 152.121H69.5038C71.4082 152.121 72.9549 153.671 72.9549 155.578V195.13C72.9549 197.047 71.4082 198.587 69.5038 198.587Z" fill="#E06738"/>
<path d="M92.285 192.587H91.2568C89.3524 192.587 87.8057 191.038 87.8057 189.13V149.578C87.8057 147.671 89.3524 146.121 91.2568 146.121H92.285C94.1894 146.121 95.7362 147.671 95.7362 149.578V189.13C95.7362 191.038 94.1894 192.587 92.285 192.587Z" fill="#E06738"/>
<path d="M114.244 186.273H113.216C111.311 186.273 109.765 184.723 109.765 182.816V143.264C109.765 141.356 111.311 139.807 113.216 139.807H114.244C116.148 139.807 117.695 141.356 117.695 143.264V182.816C117.695 184.732 116.148 186.273 114.244 186.273Z" fill="#E06738"/>
<path d="M136.479 186.273H135.451C133.547 186.273 132 184.723 132 182.816V143.264C132 141.356 133.547 139.807 135.451 139.807H136.479C138.384 139.807 139.931 141.356 139.931 143.264V182.816C139.931 184.732 138.393 186.273 136.479 186.273Z" fill="#E06738"/>
</g>
<path d="M189.676 145.209C163.739 145.209 142.71 152.652 142.71 161.832V233.52H177.57L177.758 249.605C181.567 249.955 185.554 250.143 189.676 250.143C215.613 250.143 236.642 242.7 236.642 233.52V161.832C236.642 152.652 215.613 145.209 189.676 145.209Z" fill="#FDF0B9"/>
<path d="M178.029 177.9V200.345C178.029 200.345 180.551 204.161 184.359 195.768C188.168 187.385 190.448 187.573 191.02 188.532C191.593 189.481 191.682 193.135 193.792 194.488C195.902 195.84 197.735 191.022 199.076 190.636C200.426 190.251 201.284 190.735 202.25 192.374C204.36 195.957 201.204 209.633 207.167 207.743C209.081 207.134 212.022 200.883 210.619 191.129C210.27 188.738 211.2 184 211.87 184C212.541 184 213.024 187.663 214.946 187.179C216.868 186.696 217.834 182.558 219.756 182.943C221.678 183.328 225.29 185.791 226.775 179.96C227.365 177.659 230.718 178.608 231.486 179.674C232.255 180.731 236.252 180.641 236.681 176.978C237.11 173.315 236.681 161.859 236.681 161.859L178.029 177.9Z" fill="#EDB82C"/>
<path d="M189.676 178.455C215.615 178.455 236.642 171.013 236.642 161.832C236.642 152.651 215.615 145.209 189.676 145.209C163.737 145.209 142.71 152.651 142.71 161.832C142.71 171.013 163.737 178.455 189.676 178.455Z" fill="#EDB82C"/>
<path d="M189.69 178.398C211.756 178.398 230.268 173.012 235.304 165.752" stroke="white" stroke-width="2.2294" stroke-linecap="round"/>
<mask id="mask1_1069_859" style="mask-type:alpha" maskUnits="userSpaceOnUse" x="142" y="161" width="95" height="90">
<path d="M142.724 233.441V161.754H236.656V233.441C236.656 242.622 215.627 250.065 189.69 250.065C185.568 250.065 181.58 249.876 177.772 249.527L177.584 233.441H142.724Z" fill="#C4C4C4"/>
</mask>
<g mask="url(#mask1_1069_859)">
<path d="M238.957 217.119C238.957 226.747 216.891 234.557 189.684 234.557C162.468 234.557 140.402 226.747 140.402 217.119C140.402 215.963 140.715 214.835 141.323 213.742C145.776 221.749 165.741 227.795 189.684 227.795C213.619 227.795 233.584 221.749 238.036 213.742C238.635 214.835 238.957 215.963 238.957 217.119Z" fill="#EDB82C"/>
<path d="M238.957 197.029C238.957 199.394 237.634 201.642 235.22 203.702C233.816 204.902 232.037 206.031 229.954 207.087C221.022 211.557 206.323 214.477 189.684 214.477C173.045 214.477 158.329 211.557 149.406 207.087C147.323 206.031 145.543 204.902 144.14 203.702C141.726 201.642 140.402 199.394 140.402 197.029C140.402 196.017 140.653 195.014 141.118 194.047C142.298 196.483 144.909 198.74 148.619 200.728H148.628C150.97 201.982 153.778 203.111 156.925 204.105C165.633 206.855 177.104 208.52 189.684 208.52C202.246 208.52 213.717 206.855 222.425 204.105C225.582 203.111 228.38 201.982 230.723 200.728H230.731C234.442 198.74 237.053 196.483 238.233 194.047C238.707 195.014 238.957 196.017 238.957 197.029Z" fill="#EDB82C"/>
</g>
<mask id="mask2_1069_859" style="mask-type:alpha" maskUnits="userSpaceOnUse" x="142" y="161" width="48" height="89">
<path d="M142.724 161.982H189.982L177.801 178.05V249.611L142.724 249.226V161.982Z" fill="#FC9AEA"/>
</mask>
<g mask="url(#mask2_1069_859)">
<path d="M142.724 161.828H189.982L177.801 177.896V249.852H142.724V161.828Z" fill="#EDB82C"/>
<path d="M184.602 168.921C184.602 168.921 181.678 167.739 180.625 168.088C179.582 168.437 178.457 168.984 177.791 168.921C177.135 168.867 174.346 167.694 173.293 168.016C172.249 168.339 168.327 169.243 167.625 168.921C166.924 168.598 163.613 167.577 162.659 167.963C161.697 168.348 159.43 169.467 158.566 168.993C157.702 168.518 154.032 167.255 153.681 168.491C153.33 169.727 153.681 173.292 153.681 174.071C153.681 174.85 152.673 174.519 152.385 177.528C152.097 180.537 153.537 180.967 153.105 182.687C152.673 184.407 152.017 189.852 152.349 191.715C152.673 193.578 152.133 195.871 152.259 198.88C152.385 201.89 151.378 202.866 152.241 205.741C153.105 208.625 151.963 211.061 151.891 213.497C151.819 215.933 152.538 216.506 152.826 219.802C153.114 223.098 151.675 224.961 151.891 226.108C152.106 227.254 151.63 230.837 151.873 232.7C152.115 234.563 152.071 235.852 151.801 238.145C151.531 240.438 151.801 243.313 151.801 243.313L151.891 249.532H181.961L184.602 168.921Z" fill="#FDF0B9"/>
<path d="M184.234 180.46C184.234 180.46 177.846 180.299 174.949 181.875C172.052 183.451 170.388 179.143 166.87 180.89C163.344 182.627 161.688 184.696 162.831 189.13C163.974 193.563 165.008 193.67 163.974 197.074C162.939 200.477 160.141 201.301 161.491 205.224C162.84 209.147 160.141 212.551 161.598 216.465C163.047 220.388 162.111 219.716 162.318 222.188C162.525 224.66 164.882 224.328 164.055 230.822C163.236 237.297 160.744 233.786 161.581 238.22C162.408 242.653 163.569 242.967 163.362 244.821C163.155 246.675 162.534 249.666 162.534 249.666H185.898L184.234 180.46Z" fill="#F0C7A9"/>
</g>
<path d="M145.793 161.449H191.065L185.771 167.599" stroke="white" stroke-width="2.2294" stroke-linecap="round" stroke-linejoin="round"/>
<path d="M171.053 229.482H89.7896C89.0654 233.934 89.7896 246.571 89.7896 246.571C89.7896 253.674 107.984 259.433 130.417 259.433C152.858 259.433 171.044 253.674 171.044 246.571C171.616 236.495 171.053 229.482 171.053 229.482Z" fill="#EDB82C"/>
<path d="M170.051 227.404C173.905 227.198 177.061 231.264 175.755 233.745C174.45 236.226 169.649 238.08 168.066 238.545C164.463 239.611 167.074 245.173 160.261 243.534C156.738 242.683 155.71 245.066 153.761 246.982C151.812 248.899 146.608 247.556 141.727 245.451C136.845 243.346 132.625 249.284 127.904 248.711C123.183 248.138 118.963 245.836 115.87 246.982C112.776 248.129 110.997 246.982 107.251 243.337C103.505 239.692 99.7765 244.681 96.3611 243.337C92.9457 241.994 94.251 238.734 90.5048 237.014C86.7586 235.294 83.0303 234.649 83.0303 232.509C83.0303 227.654 90.4422 226.445 90.4422 226.445L170.051 227.404Z" fill="#E06738"/>
<path d="M171.053 221.869C171.053 236.781 152.858 240.033 130.426 240.033C107.993 240.033 89.7988 236.781 89.7988 221.869C89.7988 206.956 107.993 194.865 130.426 194.865C152.858 194.865 171.053 206.956 171.053 221.869Z" fill="#EDB82C"/>
<path d="M110.202 203.346C110.898 203.346 111.463 203.061 111.463 202.71C111.463 202.359 110.898 202.074 110.202 202.074C109.506 202.074 108.941 202.359 108.941 202.71C108.941 203.061 109.506 203.346 110.202 203.346Z" fill="white"/>
<path d="M118.186 208.237C118.883 208.237 119.447 207.952 119.447 207.601C119.447 207.25 118.883 206.965 118.186 206.965C117.49 206.965 116.926 207.25 116.926 207.601C116.926 207.952 117.49 208.237 118.186 208.237Z" fill="white"/>
<path d="M123.434 203.346C124.131 203.346 124.695 203.061 124.695 202.71C124.695 202.359 124.131 202.074 123.434 202.074C122.738 202.074 122.174 202.359 122.174 202.71C122.174 203.061 122.738 203.346 123.434 203.346Z" fill="white"/>
<path d="M132.267 198.815C132.964 198.815 133.528 198.53 133.528 198.179C133.528 197.828 132.964 197.543 132.267 197.543C131.571 197.543 131.007 197.828 131.007 198.179C131.007 198.53 131.571 198.815 132.267 198.815Z" fill="white"/>
<path d="M139.135 205.229C139.831 205.229 140.395 204.944 140.395 204.593C140.395 204.242 139.831 203.957 139.135 203.957C138.438 203.957 137.874 204.242 137.874 204.593C137.874 204.944 138.438 205.229 139.135 205.229Z" fill="white"/>
<path d="M152.716 205.229C153.412 205.229 153.976 204.944 153.976 204.593C153.976 204.242 153.412 203.957 152.716 203.957C152.019 203.957 151.455 204.242 151.455 204.593C151.455 204.944 152.019 205.229 152.716 205.229Z" fill="white"/>
<path d="M104.346 214.041C105.042 214.041 105.606 213.757 105.606 213.405C105.606 213.054 105.042 212.77 104.346 212.77C103.649 212.77 103.085 213.054 103.085 213.405C103.085 213.757 103.649 214.041 104.346 214.041Z" fill="white"/>
<path d="M119.268 219.989C119.965 219.989 120.529 219.704 120.529 219.353C120.529 219.001 119.965 218.717 119.268 218.717C118.572 218.717 118.008 219.001 118.008 219.353C118.008 219.704 118.572 219.989 119.268 219.989Z" fill="white"/>
<path d="M131.008 211.586C131.704 211.586 132.268 211.302 132.268 210.95C132.268 210.599 131.704 210.314 131.008 210.314C130.312 210.314 129.747 210.599 129.747 210.95C129.747 211.302 130.312 211.586 131.008 211.586Z" fill="white"/>
<path d="M139.135 218.08C139.831 218.08 140.395 217.796 140.395 217.444C140.395 217.093 139.831 216.809 139.135 216.809C138.438 216.809 137.874 217.093 137.874 217.444C137.874 217.796 138.438 218.08 139.135 218.08Z" fill="white"/>
<path d="M151.679 215.528C152.375 215.528 152.939 215.243 152.939 214.892C152.939 214.541 152.375 214.256 151.679 214.256C150.982 214.256 150.418 214.541 150.418 214.892C150.418 215.243 150.982 215.528 151.679 215.528Z" fill="white"/>
<path d="M141.978 196.873C148.345 197.735 152.303 200.149 152.303 200.149" stroke="white" stroke-width="2" stroke-linecap="round"/>
<path d="M101.828 26.7632C112.914 21.6802 120.105 13.6289 117.889 8.78025C115.674 3.93156 104.891 4.12152 93.8051 9.20456C82.7193 14.2876 75.5284 22.3388 77.7438 27.1875C79.9593 32.0362 90.7421 31.8463 101.828 26.7632Z" fill="#0E7F3D"/>
<path d="M100.676 24.2308C106.598 21.5153 110.44 17.2138 109.256 14.623C108.072 12.0322 102.312 12.1333 96.3893 14.8488C90.467 17.5643 86.6256 21.8659 87.8094 24.4566C88.9932 27.0474 94.7538 26.9463 100.676 24.2308Z" fill="black"/>
<path d="M109.257 14.6216L87.8018 24.459L92.8774 35.5675L114.332 25.7302L109.257 14.6216Z" fill="black"/>
<path d="M225.904 65.9978L44.0482 145.388C42.3405 138.017 41.4375 130.341 41.4375 122.459C41.4375 66.6695 86.5976 21.4395 142.281 21.4395C177.105 21.4395 207.799 39.1195 225.904 65.9978Z" fill="#32B768"/>
<path d="M25.1655 161.905C24.2088 160.212 20.5074 160.373 15.9565 162.039C15.0713 162.361 14.0789 162.084 13.4799 161.349C10.44 157.561 7.35541 155.51 5.6656 156.459C3.97578 157.417 4.13674 161.125 5.79973 165.684C6.1216 166.571 5.84442 167.565 5.11127 168.165C1.33825 171.21 -0.718161 174.3 0.229565 175.993C1.18623 177.686 4.88772 177.525 9.4386 175.859C10.3237 175.536 11.3162 175.814 11.9152 176.548C14.9551 180.328 18.0397 182.388 19.7295 181.439C21.4193 180.48 21.2584 176.772 19.5954 172.213C19.2735 171.327 19.5507 170.333 20.2838 169.733C24.0658 166.687 26.1222 163.606 25.1655 161.905Z" fill="#EDB82C"/>
<path d="M275.616 86.9921C276.098 85.1112 273.318 82.6571 268.883 80.6867C268.016 80.3016 267.497 79.4149 267.578 78.4745C268.007 73.638 267.202 70.0106 265.325 69.527C263.447 69.0433 260.997 71.8288 259.03 76.2712C258.646 77.14 257.761 77.6594 256.822 77.5788C251.994 77.1489 248.373 77.955 247.89 79.8359C247.407 81.7167 250.188 84.1708 254.623 86.1412C255.49 86.5263 256.008 87.413 255.928 88.3534C255.499 93.1899 256.303 96.8173 258.181 97.3009C260.059 97.7846 262.508 94.9991 264.475 90.5567C264.86 89.688 265.745 89.1685 266.684 89.2491C271.512 89.679 275.133 88.8729 275.616 86.9921Z" fill="#E06738"/>
<path d="M267.98 213.215C273.595 213.215 278.146 208.655 278.146 203.031C278.146 197.407 273.595 192.848 267.98 192.848C262.366 192.848 257.814 197.407 257.814 203.031C257.814 208.655 262.366 213.215 267.98 213.215Z" fill="#32B768"/>
</svg>
