<svg width="269" height="276" viewBox="0 0 269 276" fill="none" xmlns="http://www.w3.org/2000/svg">
<path d="M66.7079 36.8872C78.3106 6.10033 101.112 0.482171 113.838 0.490243C150.602 0.498315 164.798 12.5015 188.415 39.5025C210.563 64.8246 226.367 61.0065 239.085 70.7253C259.818 86.5788 271.598 141.307 231.433 174.774C174.494 222.23 137.916 225.112 88.7095 209.791C55.5253 199.459 27.7143 171.223 27.0437 139.959C25.7509 79.5562 54.1598 70.1845 66.7079 36.8872Z" fill="#B3FFD1"/>
<path d="M243.544 66.9343L243.39 66.8778C242.017 66.3612 241.322 64.8356 241.831 63.4634L253.789 31.4979C254.306 30.1257 255.833 29.4315 257.207 29.94L257.36 29.9965C258.734 30.5132 259.429 32.0388 258.92 33.411L246.962 65.3764C246.444 66.7487 244.917 67.451 243.544 66.9343Z" fill="#EDB82C"/>
<path d="M239.544 62.7858L239.39 62.7374C237.984 62.3338 237.168 60.8646 237.572 59.452L247.632 24.4273C248.036 23.0228 249.506 22.2075 250.92 22.6111L251.074 22.6595C252.48 23.0631 253.296 24.5323 252.892 25.9449L242.824 60.9696C242.42 62.3822 240.95 63.1894 239.544 62.7858Z" fill="#EDB82C"/>
<path d="M237.863 72.3594L237.71 72.3029C236.336 71.7862 235.641 70.2606 236.15 68.8884L248.924 34.7597C249.442 33.3874 250.969 32.6932 252.342 33.2018L252.496 33.2583C253.869 33.7749 254.564 35.3005 254.055 36.6727L241.281 70.8015C240.772 72.1818 239.237 72.876 237.863 72.3594Z" fill="#EDB82C"/>
<path d="M235.18 59.1139L235.027 59.0655C233.621 58.6619 232.805 57.1928 233.209 55.7802L243.268 20.7554C243.672 19.3509 245.143 18.5356 246.557 18.9392L246.71 18.9877C248.116 19.3913 248.932 20.8604 248.528 22.273L238.469 57.2977C238.065 58.7103 236.594 59.5175 235.18 59.1139Z" fill="#EDB82C"/>
<path d="M231.352 61.6778L231.19 61.6536C229.744 61.4115 228.766 60.0392 229.009 58.5943L235.068 22.6655C235.311 21.2206 236.684 20.2439 238.131 20.4861L238.292 20.5103C239.739 20.7525 240.716 22.1247 240.474 23.5696L234.414 59.4984C234.172 60.9433 232.798 61.92 231.352 61.6778Z" fill="#EDB82C"/>
<path d="M228.16 64.3448L227.998 64.3286C226.536 64.1914 225.469 62.8918 225.607 61.4388L229.073 25.1629C229.21 23.7019 230.511 22.6364 231.966 22.7736L232.127 22.7898C233.59 22.927 234.656 24.2266 234.519 25.6796L231.052 61.9554C230.915 63.4165 229.614 64.482 228.16 64.3448Z" fill="#EDB82C"/>
<path d="M235.423 56.9571L235.261 56.9329C233.815 56.6908 232.837 55.3185 233.08 53.8736L239.14 17.9448C239.382 16.4999 240.756 15.5232 242.202 15.7654L242.364 15.7896C243.81 16.0317 244.788 17.404 244.545 18.8489L238.485 54.7777C238.235 56.2307 236.869 57.2074 235.423 56.9571Z" fill="#EDB82C"/>
<path d="M222.971 67.2959L222.81 67.2798C221.347 67.1426 220.281 65.843 220.418 64.39L223.884 28.1141C224.022 26.6531 225.323 25.5876 226.777 25.7248L226.939 25.7409C228.401 25.8782 229.468 27.1778 229.33 28.6307L225.864 64.9066C225.727 66.3676 224.426 67.4332 222.971 67.2959Z" fill="#EDB82C"/>
<path d="M220.629 62.5681L220.467 62.56C219.005 62.5035 217.865 61.2685 217.922 59.7994L219.384 23.3943C219.441 21.9333 220.677 20.7951 222.148 20.8516L222.309 20.8597C223.772 20.9162 224.911 22.1512 224.855 23.6203L223.392 60.0254C223.327 61.4864 222.091 62.6327 220.629 62.5681Z" fill="#EDB82C"/>
<path d="M255.332 49.5011C255.51 48.4275 255.017 47.4104 253.999 46.4498C254.047 47.0633 254.015 47.6768 253.87 48.2741C252.601 53.747 243.705 56.3542 234.017 54.1021C224.321 51.85 217.502 45.5942 218.771 40.1213C218.908 39.5401 219.134 38.9912 219.433 38.4746C218.148 38.8944 217.284 39.5805 216.977 40.5976L214.205 74.8151C214.189 75.0572 214.205 75.2913 214.246 75.5173C214.246 75.5254 214.238 75.5335 214.238 75.5335C213.81 77.382 219.724 80.3283 227.448 82.1203C233.258 83.4683 238.429 83.7751 240.829 83.0647C240.861 83.0566 240.885 83.0486 240.918 83.0324C241.548 82.8306 241.976 82.5562 242.154 82.201C242.356 81.9669 242.525 81.7086 242.639 81.4099L255.332 49.5011Z" fill="#E06738"/>
<path d="M42.0327 84.1758L27.3677 87.3239L23.457 88.1634L8.79199 91.3115L22.6571 135.716C22.6571 135.748 22.649 135.781 22.6571 135.813C22.9884 137.338 28.8544 137.371 35.7627 135.885C42.671 134.4 48.0118 131.962 47.6806 130.445C47.6725 130.413 47.6482 130.388 47.6402 130.356L42.0327 84.1758Z" fill="#E06738"/>
<path d="M42.3031 73.3926L25.2949 77.0411L20.7621 78.0179L3.75391 81.6664L19.8329 133.174C19.8329 133.207 19.8248 133.247 19.8329 133.287C20.2127 135.055 27.0159 135.095 35.0312 133.368C43.0465 131.641 49.2357 128.823 48.8559 127.056C48.8478 127.023 48.8236 126.991 48.8074 126.959L42.3031 73.3926Z" fill="#FDF0B9"/>
<path d="M35.8555 92.8629L35.4758 92.8871C34.6839 92.9436 33.9891 92.3544 33.9325 91.5552L32.9871 78.8256C32.9306 78.0345 33.5204 77.3403 34.3203 77.2838L34.7001 77.2596C35.4919 77.2031 36.1868 77.7924 36.2433 78.5915L37.1887 91.3211C37.2372 92.1122 36.6473 92.8064 35.8555 92.8629Z" fill="black"/>
<path d="M24.2246 83.1166C36.1135 80.5655 45.1474 75.6884 44.4024 72.2232C43.6574 68.7581 33.4156 68.0171 21.5267 70.5683C9.63785 73.1194 0.603941 77.9965 1.34894 81.4617C2.09394 84.9268 12.3357 85.6678 24.2246 83.1166Z" fill="#E06738"/>
<mask id="mask0_1069_790" style="mask-type:alpha" maskUnits="userSpaceOnUse" x="8" y="80" width="38" height="52">
<path d="M40.4979 80.2656L26.3104 83.3307L22.5293 84.1513L8.3418 87.2164L21.7542 130.487C21.7542 130.514 21.7475 130.548 21.7542 130.582C22.071 132.067 27.746 132.101 34.432 130.65C41.118 129.199 46.2807 126.832 45.9639 125.347C45.9572 125.32 45.937 125.293 45.9235 125.266L40.4979 80.2656Z" fill="#A03AB4"/>
</mask>
<g mask="url(#mask0_1069_790)">
<path d="M9.49023 95.4045C9.49023 95.4045 14.1523 88.8258 18.2084 89.3101C22.2726 89.7945 23.0483 91.1586 28.5265 89.6169C34.0047 88.067 34.6026 85.1611 39.7091 85.7261C43.2885 86.1217 47.3203 89.6088 47.3203 89.6088L50.3018 135.652L18.871 142.4L9.49023 95.4045Z" fill="#EDB82C"/>
</g>
<path d="M34.0861 49.6993C34.1023 49.78 34.1103 49.8526 34.1184 49.9333L35.1446 63.8012L35.8879 73.746C34.9102 74.198 33.8437 74.6339 32.7125 75.0617L31.8803 63.7931L30.8784 50.1674C30.8137 49.2714 31.4763 48.4884 32.3812 48.4239C33.1892 48.3674 33.9164 48.9243 34.0861 49.6993Z" fill="black"/>
<mask id="mask1_1069_790" style="mask-type:alpha" maskUnits="userSpaceOnUse" x="27" y="0" width="232" height="219">
<path d="M66.7069 36.8852C78.3097 6.09838 101.111 0.480218 113.837 0.48829C150.601 0.496362 164.797 12.4995 188.415 39.5006C210.562 64.8227 226.366 61.0046 239.084 70.7234C259.817 86.5769 271.597 141.306 231.432 174.772C174.493 222.228 137.915 225.11 88.7085 209.789C55.5243 199.457 27.7133 171.221 27.0427 139.957C25.7499 79.5542 54.1588 70.1825 66.7069 36.8852Z" fill="#FFF3F3"/>
</mask>
<g mask="url(#mask1_1069_790)">
<path d="M98.7762 49.7266H172.182C180.391 49.7266 187.049 56.3779 187.049 64.5792V218.522C187.049 226.723 180.391 233.374 172.182 233.374H98.7762C90.567 233.374 83.9092 226.723 83.9092 218.522V64.5711C83.9092 56.3699 90.567 49.7266 98.7762 49.7266Z" fill="black"/>
<path d="M100.594 56.3945H170.356C175.883 56.3945 180.367 60.8745 180.367 66.3958V216.698C180.367 222.219 175.883 226.699 170.356 226.699H100.594C95.0674 226.699 90.583 222.219 90.583 216.698V66.3958C90.583 60.8665 95.0674 56.3945 100.594 56.3945Z" fill="#32B768"/>
<path d="M102.412 95.0117H168.538C171.051 95.0117 173.087 97.0459 173.087 99.5563V138.343C173.087 140.853 171.051 142.887 168.538 142.887H102.412C99.8994 142.887 97.8633 140.853 97.8633 138.343V99.5563C97.8633 97.0459 99.8994 95.0117 102.412 95.0117Z" fill="white"/>
<path d="M102.412 149.553H168.538C171.051 149.553 173.087 151.587 173.087 154.097V169.249C173.087 171.759 171.051 173.793 168.538 173.793H102.412C99.8994 173.793 97.8633 171.759 97.8633 169.249V154.097C97.8633 151.587 99.8994 149.553 102.412 149.553Z" fill="white"/>
<path d="M102.412 180.461H168.538C171.051 180.461 173.087 182.495 173.087 185.006V200.157C173.087 202.667 171.051 204.701 168.538 204.701H102.412C99.8994 204.701 97.8633 202.667 97.8633 200.157V185.006C97.8633 182.495 99.8994 180.461 102.412 180.461Z" fill="white"/>
<mask id="mask2_1069_790" style="mask-type:alpha" maskUnits="userSpaceOnUse" x="90" y="56" width="91" height="171">
<path d="M100.594 56.3945H170.356C175.883 56.3945 180.367 60.8745 180.367 66.3958V216.698C180.367 222.219 175.883 226.699 170.356 226.699H100.594C95.0674 226.699 90.583 222.219 90.583 216.698V66.3958C90.583 60.8665 95.0674 56.3945 100.594 56.3945Z" fill="white"/>
</mask>
<g mask="url(#mask2_1069_790)">
<path d="M102.412 211.371H168.538C171.051 211.371 173.087 213.405 173.087 215.916V231.067C173.087 233.577 171.051 235.612 168.538 235.612H102.412C99.8994 235.612 97.8633 233.577 97.8633 231.067V215.916C97.8633 213.413 99.8994 211.371 102.412 211.371Z" fill="#32B768"/>
</g>
<path d="M160.482 99.9102H112.657C112.229 102.517 112.657 109.944 112.657 109.944C112.657 114.117 123.363 117.499 136.574 117.499C149.784 117.499 160.49 114.117 160.49 109.944C160.805 104.027 160.482 99.9102 160.482 99.9102Z" fill="#EDB82C"/>
<path d="M159.885 98.702C162.155 98.5809 164.006 100.97 163.246 102.423C162.479 103.876 159.651 104.966 158.721 105.24C156.596 105.87 158.132 109.131 154.132 108.162C152.064 107.662 151.45 109.067 150.302 110.189C149.155 111.311 146.093 110.528 143.224 109.285C140.356 108.049 137.867 111.537 135.088 111.198C132.316 110.859 129.828 109.511 128.01 110.189C126.192 110.867 125.141 110.189 122.936 108.049C120.738 105.91 118.532 108.841 116.528 108.049C114.516 107.258 115.284 105.345 113.086 104.336C110.888 103.327 108.683 102.948 108.683 101.689C108.683 98.8392 113.046 98.1289 113.046 98.1289L159.885 98.702Z" fill="#E06738"/>
<path d="M160.482 95.4473C160.482 104.197 149.777 106.11 136.566 106.11C123.355 106.11 112.649 104.205 112.649 95.4473C112.649 86.6891 123.355 79.5938 136.566 79.5938C149.777 79.5938 160.482 86.6891 160.482 95.4473Z" fill="#EDB82C"/>
<path d="M152.774 67.8457H119.332C118.411 67.8457 117.659 67.095 117.659 66.1748C117.659 65.2546 118.411 64.5039 119.332 64.5039H152.774C153.696 64.5039 154.447 65.2546 154.447 66.1748C154.447 67.095 153.696 67.8457 152.774 67.8457Z" fill="#0E7F3D"/>
<path d="M157.768 130.15H114.331C113.41 130.15 112.658 129.4 112.658 128.48C112.658 127.559 113.41 126.809 114.331 126.809H157.776C158.697 126.809 159.449 127.559 159.449 128.48C159.449 129.4 158.697 130.15 157.768 130.15Z" fill="#0E7F3D"/>
<path d="M149.721 136.164H122.379C121.457 136.164 120.706 135.413 120.706 134.493C120.706 133.573 121.457 132.822 122.379 132.822H149.721C150.642 132.822 151.394 133.573 151.394 134.493C151.394 135.413 150.65 136.164 149.721 136.164Z" fill="#0E7F3D"/>
<path d="M116.035 168.691H106.096C104.965 168.691 104.044 167.771 104.044 166.641V156.712C104.044 155.582 104.965 154.662 106.096 154.662H116.035C117.166 154.662 118.087 155.582 118.087 156.712V166.641C118.087 167.771 117.166 168.691 116.035 168.691Z" fill="#0E7F3D"/>
<path d="M152.895 158.458H123.315C122.701 158.458 122.208 157.965 122.208 157.352C122.208 156.738 122.701 156.246 123.315 156.246H152.895C153.51 156.246 154.002 156.738 154.002 157.352C154.002 157.965 153.51 158.458 152.895 158.458Z" fill="#32B768"/>
<path d="M152.895 162.858H123.315C122.701 162.858 122.208 162.366 122.208 161.752C122.208 161.139 122.701 160.646 123.315 160.646H152.895C153.51 160.646 154.002 161.139 154.002 161.752C154.002 162.358 153.51 162.858 152.895 162.858Z" fill="#32B768"/>
<path d="M148.581 167.112H123.315C122.701 167.112 122.208 166.62 122.208 166.006C122.208 165.393 122.701 164.9 123.315 164.9H148.581C149.195 164.9 149.688 165.393 149.688 166.006C149.696 166.612 149.195 167.112 148.581 167.112Z" fill="#32B768"/>
<path d="M116.035 199.6H106.096C104.965 199.6 104.044 198.679 104.044 197.549V187.621C104.044 186.491 104.965 185.57 106.096 185.57H116.035C117.166 185.57 118.087 186.491 118.087 187.621V197.549C118.087 198.679 117.166 199.6 116.035 199.6Z" fill="#0E7F3D"/>
<path d="M152.895 189.384H123.315C122.701 189.384 122.208 188.891 122.208 188.278C122.208 187.664 122.701 187.172 123.315 187.172H152.895C153.51 187.172 154.002 187.664 154.002 188.278C154.002 188.891 153.51 189.384 152.895 189.384Z" fill="#32B768"/>
<path d="M152.895 193.784H123.315C122.701 193.784 122.208 193.292 122.208 192.678C122.208 192.065 122.701 191.572 123.315 191.572H152.895C153.51 191.572 154.002 192.065 154.002 192.678C154.002 193.292 153.51 193.784 152.895 193.784Z" fill="#32B768"/>
<path d="M148.581 198.005H123.315C122.701 198.005 122.208 197.512 122.208 196.899C122.208 196.285 122.701 195.793 123.315 195.793H148.581C149.195 195.793 149.688 196.285 149.688 196.899C149.696 197.504 149.195 198.005 148.581 198.005Z" fill="#32B768"/>
</g>
<path d="M246.211 209.265C240.87 199.578 239.351 172.513 235.723 157.475C229.857 133.137 218.44 134.727 212.332 137.238C212.122 137.327 209.77 133.428 204.131 133.428C197.481 133.428 197.537 136.544 195.566 136.891C194.087 137.149 191.033 135.825 186.799 136.794C182.541 137.771 180.812 141.04 179.39 142.105L174.138 122.531C172.538 116.573 166.406 113.038 160.443 114.636C154.48 116.234 150.941 122.361 152.541 128.318L166.68 180.988L155.498 173.409C150.391 169.946 143.434 171.27 139.968 176.379C136.502 181.481 137.827 188.431 142.942 191.894L173.944 212.922C180.949 217.886 190.039 224.868 193.384 229.824C199.121 238.324 207.654 273.777 207.654 273.777C250.792 284.061 261.853 255.324 261.853 255.324L246.211 209.265Z" fill="#F0C7A9"/>
<path d="M257.087 234.262L251.504 216.883C250.647 214.219 248.126 212.492 245.403 212.71L212.017 215.366C211.605 215.398 211.217 215.487 210.846 215.6L210.401 214.357L208.074 217.392C207.921 217.577 207.767 217.763 207.638 217.965L207.557 218.078L207.565 218.094C207.339 218.449 207.137 218.829 206.983 219.224C206.515 220.467 206.442 221.896 206.894 223.292L212.478 240.672C213.334 243.335 215.855 245.063 218.578 244.845L251.964 242.189C255.77 241.882 258.291 237.992 257.087 234.262Z" fill="#0E7F3D"/>
<path d="M254.477 235.644L259.656 248.882C259.656 248.882 265.013 224.868 251.512 216.885L254.477 235.644Z" fill="black"/>
<path d="M251.689 239.318L220.419 241.812C217.866 242.014 215.499 240.278 214.683 237.615L209.366 220.211C208.227 216.474 210.562 212.599 214.141 212.317L245.411 209.823C247.964 209.621 250.331 211.356 251.147 214.02L256.464 231.423C257.603 235.161 255.26 239.035 251.689 239.318Z" fill="#32B768"/>
<path d="M212.46 240.674C212.46 240.674 200.308 245.889 203.621 258.417C203.621 258.417 194.329 262.574 192.35 252.782C190.362 242.999 189.926 225.814 206.635 222.197L212.46 240.674Z" fill="black"/>
<path d="M177.822 135.824L185.021 160.234" stroke="black" stroke-width="1.75615" stroke-miterlimit="10" stroke-linecap="round"/>
<path d="M196.212 137.326C196.212 137.326 202.652 147.005 203.653 158.733" stroke="black" stroke-width="1.75615" stroke-miterlimit="10" stroke-linecap="round"/>
<path d="M212.461 137.697C212.461 137.697 218.901 147.376 219.903 159.104" stroke="black" stroke-width="1.75615" stroke-miterlimit="10" stroke-linecap="round"/>
<path d="M42.5175 200.161C48.9211 200.161 54.1122 194.975 54.1122 188.578C54.1122 182.18 48.9211 176.994 42.5175 176.994C36.114 176.994 30.9229 182.18 30.9229 188.578C30.9229 194.975 36.114 200.161 42.5175 200.161Z" fill="#0E7F3D"/>
<path d="M268.947 123.25C269.368 121.781 267.234 119.803 263.792 118.165C263.122 117.842 262.726 117.139 262.815 116.397C263.259 112.611 262.71 109.754 261.239 109.334C259.769 108.914 257.789 111.045 256.149 114.484C255.826 115.154 255.123 115.549 254.379 115.46C250.59 115.017 247.73 115.565 247.309 117.035C246.889 118.504 249.022 120.481 252.464 122.12C253.135 122.443 253.531 123.145 253.442 123.888C252.998 127.674 253.547 130.531 255.018 130.951C256.488 131.371 258.468 129.239 260.108 125.801C260.431 125.131 261.134 124.735 261.877 124.824C265.659 125.268 268.519 124.719 268.947 123.25Z" fill="#32B768"/>
<path d="M97.0469 8.62744C96.7238 7.13411 93.9039 6.39955 90.0902 6.59328C89.3468 6.63364 88.6681 6.19775 88.3934 5.50355C86.9794 1.95991 85.1372 -0.292194 83.6505 0.0306891C82.1557 0.353572 81.4204 3.17072 81.6143 6.98074C81.6547 7.72337 81.2184 8.40142 80.5235 8.67587C76.9765 10.0885 74.7222 11.9289 75.0454 13.4142C75.3686 14.9075 78.1884 15.6421 82.0022 15.4483C82.7455 15.408 83.4242 15.8439 83.6989 16.5381C85.1129 20.0817 86.9551 22.3338 88.4418 22.0109C89.9366 21.688 90.6719 18.8709 90.478 15.0609C90.4376 14.3182 90.8739 13.6402 91.5688 13.3657C95.1158 11.9612 97.3701 10.1208 97.0469 8.62744Z" fill="#E06738"/>
</svg>
