<svg width="325" height="194" viewBox="0 0 325 194" fill="none" xmlns="http://www.w3.org/2000/svg">
<path d="M50.845 174.247C50.845 174.247 4.70764 154.756 0.256159 102.968C-4.19532 51.1795 50.845 48.395 50.845 48.395C50.845 48.395 90.9083 47.9498 125.892 41.1583C160.876 34.3668 200.34 8.8614 200.34 8.8614C200.34 8.8614 265.976 -23.0962 297.666 34.3667C329.355 91.8297 296.17 156.197 260.156 168.431C230.491 178.508 154.781 204.6 50.845 174.247Z" fill="#B3FFD1"/>
<path d="M282.505 168.531L243.627 74.0931C240.784 67.1885 234.068 62.6797 226.611 62.6797H169.772H151.973H95.1336C87.6768 62.6797 80.9608 67.1885 78.1178 74.0931L39.2396 168.531C34.245 180.673 43.1479 194.001 56.2555 194.001H151.973H169.772H265.489C278.597 194.001 287.507 180.666 282.505 168.531Z" fill="#0E7F3D"/>
<path d="M282.505 162.85L243.627 68.4115C240.784 61.5069 234.068 56.998 226.611 56.998H169.772H151.973H95.1336C87.6768 56.998 80.9608 61.5069 78.1178 68.4115L39.2396 162.85C34.245 174.991 43.1479 188.32 56.2555 188.32H151.973H169.772H265.489C278.597 188.327 287.507 174.991 282.505 162.85Z" fill="#32B768"/>
<path d="M215.98 148.898C221.79 148.898 226.499 146.281 226.499 143.053C226.499 139.826 221.79 137.209 215.98 137.209C210.171 137.209 205.462 139.826 205.462 143.053C205.462 146.281 210.171 148.898 215.98 148.898Z" fill="#0E7F3D"/>
<mask id="mask0_1068_740" style="mask-type:alpha" maskUnits="userSpaceOnUse" x="37" y="56" width="247" height="133">
<path d="M282.504 162.848L243.626 68.4095C240.783 61.5049 234.067 56.9961 226.61 56.9961H169.771H151.972H95.1326C87.6759 56.9961 80.9598 61.5049 78.1168 68.4095L39.2387 162.848C34.244 174.989 43.1469 188.318 56.2545 188.318H151.972H169.771H265.488C278.596 188.325 287.506 174.989 282.504 162.848Z" fill="#7ABA60"/>
</mask>
<g mask="url(#mask0_1068_740)">
<path d="M277.479 140.224H243.701C242.643 140.224 241.677 139.623 241.232 138.669C238.164 132.082 228.315 127.383 216.308 127.383C216.231 127.383 216.153 127.383 216.083 127.383L212.95 113.093C212.576 111.376 213.881 109.75 215.631 109.75H260.661C262.178 109.75 263.405 108.52 263.405 107.001V106.853C263.405 105.333 262.178 104.103 260.661 104.103H213.183C211.892 104.103 210.777 103.206 210.502 101.941L208.294 91.8702C207.92 90.1529 209.225 88.5274 210.975 88.5274H251.313C252.83 88.5274 254.058 87.2977 254.058 85.7783V85.6299C254.058 84.1105 252.83 82.8808 251.313 82.8808H208.534C207.243 82.8808 206.128 81.9833 205.853 80.7183L200.725 57.2977C200.4 55.8136 198.933 54.8737 197.451 55.1988L197.303 55.2341C195.822 55.5592 194.883 57.0292 195.208 58.5133L199.814 79.5451C200.188 81.2624 198.883 82.8878 197.134 82.8878H136.57C134.827 82.8878 133.529 81.2836 133.882 79.5804L138.383 57.7712C138.693 56.28 137.734 54.8242 136.252 54.5203L136.104 54.492C134.616 54.1811 133.162 55.1422 132.859 56.6263L127.885 80.697C127.624 81.9762 126.496 82.8949 125.198 82.8949H102.644C102.616 82.8949 102.566 82.8949 102.524 82.8313C102.482 82.7677 102.496 82.7253 102.51 82.697L104.563 77.1564C104.647 76.9232 104.711 76.6758 104.725 76.4214C104.972 72.5628 102.087 69.9267 98.9331 69.9267C98.919 69.9267 98.9049 69.9267 98.8837 69.9267H77.226C75.7092 69.9267 74.4817 71.1564 74.4817 72.6758V72.8242C74.4817 74.3437 75.7092 75.5734 77.226 75.5734H98.9049C98.9331 75.5804 98.9825 75.5734 99.0248 75.637C99.0672 75.7006 99.0531 75.743 99.039 75.7713L96.9931 81.3048C96.9085 81.538 96.845 81.7854 96.8238 82.0398C96.5698 85.8914 99.4411 88.5415 102.637 88.5415H122.877C124.619 88.5415 125.917 90.1458 125.564 91.849L125.085 94.167C124.824 95.4462 123.695 96.3649 122.397 96.3649H68.5276C67.0109 96.3649 65.7834 97.5946 65.7834 99.114V99.2624C65.7834 100.782 67.0109 102.012 68.5276 102.012H120.097C121.84 102.012 123.138 103.616 122.785 105.319L116.027 138.04C115.766 139.319 114.637 140.238 113.339 140.238H46.5665C45.0498 140.238 43.8223 141.467 43.8223 142.987V143.135C43.8223 144.655 45.0498 145.884 46.5665 145.884H111.039C112.781 145.884 114.079 147.489 113.727 149.192L105.536 188.846C105.226 190.337 106.185 191.793 107.667 192.096L107.815 192.125C109.303 192.436 110.757 191.475 111.06 189.99L119.716 148.068C119.977 146.789 121.106 145.87 122.404 145.87H188.901C189.959 145.87 190.926 146.471 191.37 147.425C194.439 154.012 204.287 158.711 216.294 158.711C216.534 158.711 216.774 158.704 217.014 158.697L223.306 188.068C223.624 189.552 225.084 190.499 226.573 190.181L226.721 190.153C228.202 189.835 229.148 188.372 228.83 186.881L223.285 161.015C222.968 159.545 223.892 158.075 225.359 157.757C233.063 156.068 238.954 152.266 241.204 147.446C241.656 146.485 242.622 145.87 243.68 145.87H277.458C278.975 145.87 280.202 144.641 280.202 143.121V142.973C280.23 141.453 278.996 140.224 277.479 140.224ZM134.256 88.5204H199.575C200.866 88.5204 201.98 89.4179 202.255 90.6829L204.464 100.754C204.837 102.471 203.532 104.096 201.783 104.096H175.624C169.331 104.096 164.238 109.206 164.238 115.503V137.467C164.238 138.987 163.01 140.217 161.494 140.217H124.725C122.982 140.217 121.684 138.612 122.037 136.909L131.575 90.7112C131.829 89.432 132.958 88.5204 134.256 88.5204ZM188.908 140.224H172.626C171.109 140.224 169.882 138.994 169.882 137.474V115.51C169.882 112.33 172.457 109.757 175.624 109.757H204.224C205.515 109.757 206.629 110.655 206.904 111.92L209.762 124.973C210.086 126.457 209.148 127.941 207.659 128.252C199.744 129.891 193.677 133.75 191.384 138.655C190.94 139.609 189.973 140.224 188.908 140.224ZM216.308 153.065C206.714 153.065 196.026 148.951 196.026 143.05C196.026 137.149 206.714 133.036 216.308 133.036C225.903 133.036 236.59 137.149 236.59 143.05C236.583 148.951 225.896 153.065 216.308 153.065Z" fill="white"/>
</g>
<path opacity="0.3" d="M160.87 112.041C194.186 112.041 221.194 99.5077 221.194 84.0476C221.194 68.5876 194.186 56.0547 160.87 56.0547C127.554 56.0547 100.546 68.5876 100.546 84.0476C100.546 99.5077 127.554 112.041 160.87 112.041Z" fill="white"/>
<path opacity="0.35" d="M160.87 102.358C182.665 102.358 200.334 94.1601 200.334 84.0473C200.334 73.9344 182.665 65.7363 160.87 65.7363C139.075 65.7363 121.406 73.9344 121.406 84.0473C121.406 94.1601 139.075 102.358 160.87 102.358Z" fill="white"/>
<path opacity="0.35" d="M160.869 94.2352C172.994 94.2352 182.823 89.6726 182.823 84.0443C182.823 78.4161 172.994 73.8535 160.869 73.8535C148.744 73.8535 138.915 78.4161 138.915 84.0443C138.915 89.6726 148.744 94.2352 160.869 94.2352Z" fill="white"/>
<path d="M160.869 11.8066C145.455 11.8066 132.961 24.3225 132.961 39.7713C132.961 45.8774 135.557 51.5523 138.231 56.1177L153.695 82.2096C155.324 84.9446 158.083 86.351 160.869 86.4075C163.656 86.351 166.414 84.9446 168.044 82.2096L183.507 56.1177C186.181 51.5523 188.777 45.8774 188.777 39.7713C188.777 24.3225 176.284 11.8066 160.869 11.8066ZM160.869 50.4145C154.767 50.4145 149.814 45.4533 149.814 39.3332C149.814 33.2201 154.767 28.259 160.869 28.259C166.971 28.259 171.924 33.2201 171.924 39.3332C171.924 45.4533 166.971 50.4145 160.869 50.4145Z" fill="#E06738"/>
<path d="M258.358 117.727H225.744C224.756 117.727 223.952 116.921 223.952 115.932V89.2324H260.149V115.932C260.149 116.929 259.345 117.727 258.358 117.727Z" fill="#E06738"/>
<path d="M248.224 117.592H235.913V106.021C235.913 105.282 236.719 104.686 237.718 104.686H246.42C247.418 104.686 248.224 105.282 248.224 106.021V117.592Z" fill="white"/>
<path d="M258.208 82.8945H242.06H225.905L219.45 92.4988H242.06H264.67L258.208 82.8945Z" fill="#EDB82C"/>
<path d="M222.951 98.2648H222.386C220.757 98.2648 219.438 96.9433 219.438 95.3108V92.498H225.9V95.3108C225.9 96.9433 224.58 98.2648 222.951 98.2648Z" fill="#EDB82C"/>
<path d="M229.497 98.2648H228.933C227.254 98.2648 225.899 96.9009 225.899 95.226V92.498H232.361V95.3956C232.361 96.9786 231.078 98.2648 229.497 98.2648Z" fill="#FDF0B9"/>
<path d="M232.361 82.8945H225.899V92.4988H232.361V82.8945Z" fill="#FDF0B9"/>
<path d="M245.287 82.8945H238.825V92.4988H245.287V82.8945Z" fill="#FDF0B9"/>
<path d="M258.202 82.8945H251.74V92.4988H258.202V82.8945Z" fill="#FDF0B9"/>
<path d="M235.876 98.2648H235.311C233.682 98.2648 232.362 96.9433 232.362 95.3108V92.498H238.824V95.3108C238.824 96.9433 237.505 98.2648 235.876 98.2648Z" fill="#EDB82C"/>
<path d="M242.331 98.2648H241.766C240.137 98.2648 238.817 96.9433 238.817 95.3108V92.498H245.279V95.3108C245.286 96.9433 243.96 98.2648 242.331 98.2648Z" fill="#FDF0B9"/>
<path d="M248.793 98.2648H248.228C246.599 98.2648 245.279 96.9433 245.279 95.3108V92.498H251.741V95.3108C251.741 96.9433 250.422 98.2648 248.793 98.2648Z" fill="#EDB82C"/>
<path d="M255.253 98.2648H254.689C253.059 98.2648 251.74 96.9433 251.74 95.3108V92.498H258.202V95.3108C258.202 96.9433 256.883 98.2648 255.253 98.2648Z" fill="#FDF0B9"/>
<path d="M261.716 98.2648H261.152C259.522 98.2648 258.203 96.9433 258.203 95.3108V92.498H264.665V95.3108C264.665 96.9433 263.346 98.2648 261.716 98.2648Z" fill="#EDB82C"/>
<path d="M85.7442 129.314H60.3969C59.4163 129.314 58.6191 128.516 58.6191 127.533V118.056C58.6191 117.074 59.4163 116.275 60.3969 116.275H85.7442C86.7248 116.275 87.522 117.074 87.522 118.056V127.533C87.5291 128.516 86.7319 129.314 85.7442 129.314Z" fill="#E06738"/>
<path d="M85.8071 127.173H60.3398V99.957H85.8071V127.173ZM62.4562 125.052H83.6907V102.077H62.4562V125.052Z" fill="#E06738"/>
<path d="M85.3123 95.2246H72.4235H59.5417L54.3848 103.995H72.4235H90.4622L85.3123 95.2246Z" fill="#EDB82C"/>
<path d="M64.6999 95.2246H59.543V103.988H64.6999V95.2246Z" fill="#FDF0B9"/>
<path d="M75.0065 95.2246H69.8496V103.988H75.0065V95.2246Z" fill="#FDF0B9"/>
<path d="M85.3122 95.2246H80.1553V103.988H85.3122V95.2246Z" fill="#FDF0B9"/>
<path d="M87.8874 109.263C86.4624 109.263 85.3125 108.104 85.3125 106.684V103.998H90.4694V106.684C90.4624 108.111 89.3125 109.263 87.8874 109.263Z" fill="#EDB82C"/>
<path d="M82.7302 109.263C81.3052 109.263 80.1553 108.104 80.1553 106.684V103.998H85.3122V106.684C85.3122 108.111 84.1552 109.263 82.7302 109.263Z" fill="#FDF0B9"/>
<path d="M77.5818 109.263C76.1567 109.263 75.0068 108.104 75.0068 106.684V103.998H80.1638V106.684C80.1567 108.111 79.0068 109.263 77.5818 109.263Z" fill="#EDB82C"/>
<path d="M72.4246 109.263C70.9995 109.263 69.8496 108.104 69.8496 106.684V103.998H75.0065V106.684C75.0065 108.111 73.8496 109.263 72.4246 109.263Z" fill="#FDF0B9"/>
<path d="M67.2742 109.263C65.8491 109.263 64.6992 108.104 64.6992 106.684V103.998H69.8562V106.684C69.8491 108.111 68.6921 109.263 67.2742 109.263Z" fill="#EDB82C"/>
<path d="M62.1179 109.263C60.6929 109.263 59.543 108.104 59.543 106.684V103.998H64.6999V106.684C64.6929 108.111 63.5429 109.263 62.1179 109.263Z" fill="#FDF0B9"/>
<path d="M56.9665 109.263C55.5415 109.263 54.3916 108.104 54.3916 106.684V103.998H59.5485V106.684C59.5415 108.111 58.3845 109.263 56.9665 109.263Z" fill="#EDB82C"/>
<path d="M295.79 50.9817L301.299 80.1478C301.582 81.639 303.522 82.0347 304.368 80.7768L311.5 70.1619L323.775 66.6142C325.229 66.1902 325.447 64.2185 324.114 63.4905L298.089 49.3068C296.925 48.6707 295.543 49.6813 295.79 50.9817Z" fill="#EDB82C"/>
<path d="M226.117 36.6213C230.726 36.6213 234.463 32.8782 234.463 28.2608C234.463 23.6435 230.726 19.9004 226.117 19.9004C221.508 19.9004 217.771 23.6435 217.771 28.2608C217.771 32.8782 221.508 36.6213 226.117 36.6213Z" fill="#32B768"/>
<path d="M14.0543 151.278C20.9194 151.278 26.4846 145.703 26.4846 138.825C26.4846 131.948 20.9194 126.373 14.0543 126.373C7.18925 126.373 1.62402 131.948 1.62402 138.825C1.62402 145.703 7.18925 151.278 14.0543 151.278Z" fill="#0E7F3D"/>
<path d="M83.832 19.843C83.5286 18.6416 81.2358 18.1186 78.16 18.3731C77.5604 18.4225 76.996 18.0833 76.7562 17.5321C75.5216 14.6981 73.9766 12.9172 72.7844 13.2211C71.5851 13.525 71.0631 15.8218 71.317 18.9031C71.3664 19.5038 71.0278 20.0692 70.4775 20.3095C67.6486 21.5462 65.8708 23.0939 66.1742 24.2883C66.4775 25.4897 68.7703 26.0126 71.8461 25.7582C72.4458 25.7088 73.0101 26.048 73.25 26.5992C74.4846 29.4331 76.0295 31.2141 77.2218 30.9102C78.414 30.6063 78.9431 28.3095 78.6891 25.2282C78.6397 24.6275 78.9784 24.0621 79.5286 23.8218C82.3575 22.5922 84.1353 21.0445 83.832 19.843Z" fill="#EDB82C"/>
</svg>
