<svg width="191" height="44" viewBox="0 0 191 44" fill="none" xmlns="http://www.w3.org/2000/svg">
<g clip-path="url(#clip0_2401_690)">
<path d="M28.5692 0.802734V20.378C28.5692 25.3379 27.3292 34.4569 14.2846 34.4569C1.24005 34.4569 0 25.3379 0 20.378V0.802734H8.41397V19.0019C8.41397 26.3607 11.3498 27.0023 14.2846 27.0023C17.2201 27.0023 20.1553 26.3602 20.1553 19.0019V0.802734H28.5692Z" fill="#F76512"/>
<path d="M61.2515 22.5475C61.2515 29.1042 56.3234 34.4193 50.2445 34.4193C47.5697 34.4193 45.1186 33.3894 43.2115 31.6783V43.6588H35.2646V11.3698H43.2115V13.4167C45.1186 11.7057 47.5697 10.6758 50.2445 10.6758C56.3238 10.6758 61.2515 15.9909 61.2515 22.5475ZM53.0889 22.5475C53.0889 19.7258 50.8345 17.4379 48.0531 17.4379C45.2717 17.4379 43.2115 19.7258 43.2115 22.5475C43.2115 25.3697 45.2717 27.6577 48.0531 27.6577C50.8345 27.6577 53.0889 25.3692 53.0889 22.5475Z" fill="#F76512"/>
<path d="M103.129 34.4842H94.1533L92.3087 32.5369C89.814 33.7671 86.9825 34.4658 83.9778 34.4658C73.9667 34.4658 65.8506 26.7508 65.8506 17.2331C65.8506 7.7154 73.9667 0 83.9778 0C93.9894 0 102.105 7.71587 102.105 17.2331C102.105 21.5996 100.393 25.5844 97.5768 28.6215L103.129 34.4842ZM93.4244 17.2336C93.4244 12.2742 89.1954 8.2535 83.9778 8.2535C78.7606 8.2535 74.532 12.2742 74.532 17.2336C74.532 22.1929 78.761 26.2137 83.9778 26.2137C84.7075 26.2137 85.4158 26.1272 86.0974 25.9784L81.5081 21.1324H90.4835L91.6909 22.407C92.7792 20.9434 93.4244 19.1615 93.4244 17.2336Z" fill="#252525"/>
<path d="M125.084 11.3216H133.03V33.6053H125.084V31.6778C123.177 33.3894 120.725 34.4193 118.05 34.4193C111.972 34.4193 107.044 29.1042 107.044 22.5475C107.044 15.9909 111.972 10.6758 118.05 10.6758C120.725 10.6758 123.177 11.7062 125.084 13.4167V11.3216ZM125.084 22.5475C125.084 19.7258 123.024 17.4379 120.242 17.4379C117.461 17.4379 115.206 19.7258 115.206 22.5475C115.206 25.3697 117.461 27.6577 120.242 27.6577C123.024 27.6577 125.084 25.3692 125.084 22.5475Z" fill="#252525"/>
<path d="M166.614 11.3359L156.62 30.0227L154.722 33.5743L149.346 43.625H141.399L148.276 30.4091L137.679 11.3359H147.028L152.576 22.1414L158.2 11.3359H166.614Z" fill="#252525"/>
<path d="M184.533 27.9955V34.4108C179.881 34.4108 172.578 33.4561 172.578 25.7156V18.1679H170.07V11.3505H172.578V4.67578H180.524V24.3593C180.524 25.684 181.263 27.9955 184.533 27.9955Z" fill="#252525"/>
<path d="M182.037 15.7631C182.037 13.3217 184.008 11.3418 186.441 11.3418C188.872 11.3418 190.844 13.3217 190.844 15.7631C190.844 18.205 188.872 20.1844 186.441 20.1844C184.008 20.1844 182.037 18.205 182.037 15.7631Z" fill="#F66512"/>
</g>
<defs>
<clipPath id="clip0_2401_690">
<rect width="191" height="44" fill="white"/>
</clipPath>
</defs>
</svg>
