<svg width="16" height="19" viewBox="0 0 16 19" fill="none" xmlns="http://www.w3.org/2000/svg">
<path d="M7 9.66091C7.16567 9.68215 7.3235 9.67154 7.50787 9.65916C7.63072 9.65091 7.76534 9.64186 7.92192 9.64092C8.92039 9.64092 10.0336 9.32137 11 8.9914M7 9.66091L16 8.6754C16 8.73345 15.9835 8.79039 15.9524 8.83999C15.9212 8.88959 15.8765 8.92995 15.8232 8.95665C15.7699 8.98336 15.7101 8.99538 15.6502 8.9914C15.5903 8.98743 15.5328 8.96761 15.4837 8.93412C13.7694 8.19442 12.6018 8.44389 11 8.9914M7 9.66091V9.5H6.5L6.27609 9.94706C6.35295 9.98556 6.42751 10.0179 6.5 10.0449V15.5L6.49824 15.5L6.5 16H7V15.9982L9.05199 15.991M7 9.66091L6.0243 8.70253M11 8.9914L10.8687 8.60724M11 8.9914L10.8688 8.60719C12.2445 8.15444 13.555 7.8401 14.7775 8.44774L15.5 8.80688V8.67553C15.5 8.6755 15.5 8.67547 15.5 8.67543C15.5 8.67542 15.5 8.67541 15.5 8.6754C15.5 8.63841 15.5106 8.60325 15.529 8.57392C15.5474 8.54471 15.5723 8.52315 15.5992 8.50965C15.6232 8.4976 15.649 8.49188 15.6744 8.49216C15.6774 8.49219 15.6804 8.49231 15.6833 8.4925C15.7117 8.49438 15.7402 8.50379 15.7659 8.5213L15.7261 8.49412L15.6818 8.47503C15.6207 8.44865 15.5601 8.4234 15.5 8.39927C15.2963 8.31744 15.0984 8.2484 14.9049 8.19129C14.2972 8.01187 13.7336 7.95034 13.1726 7.98079C12.3932 8.0231 11.6459 8.24223 10.8384 8.51823L10.8687 8.60724M10.8687 8.60724C10.6932 8.66499 10.5167 8.72499 10.3391 8.78561C10.2149 8.82808 10.0933 8.87085 9.97375 8.91285C9.39161 9.11746 8.86127 9.30386 8.34405 9.34803C8.2021 9.36015 8.06197 9.36197 7.92192 9.35279C7.92134 9.35275 7.92076 9.35271 7.92018 9.35268C7.64926 9.33475 7.37856 9.27566 7.09533 9.17048M10.8687 8.60724L10.8383 8.51828C10.6636 8.57793 10.4861 8.63645 10.3072 8.69228L10.1775 8.3129L10.3071 8.69233C9.50104 8.9439 8.66588 9.14091 7.92192 9.14091L7.91891 9.14093C7.68615 9.14233 7.52085 9.1536 7.39154 9.16241C7.26959 9.17073 7.17965 9.17686 7.09533 9.17048M7.09533 9.17048C6.98252 9.16194 6.87978 9.13101 6.72391 9.05294L6.0243 8.70253M7.09533 9.17048C6.8242 9.06978 6.54158 8.92684 6.23627 8.73729L6.0243 8.60569M6.0243 8.70253L10.7892 1.86496C10.7892 1.86496 10.7892 1.86497 10.7892 1.86497C10.766 1.8729 10.7429 1.88083 10.7197 1.88875C9.99511 2.13688 9.28755 2.37916 8.58179 2.43966C7.95956 2.49299 7.34445 2.40654 6.69784 2.1018C6.54594 2.03022 6.3923 1.94658 6.23643 1.84989L6.0243 1.7183V2.5V8.3125V8.60569M6.0243 8.70253V8.60569M6.0243 8.70253L6 8.69036V9.5V15.9917V16V16.3H5.5243H4.86957H4.5V15.9917V15.991V8.3125V8V0.633333V0.5H4.86957H5.5243H5.85035L6 0.500096V0.633333V1.425V1.69326V1.70322V2.5V8.3125V8.5906L6.0243 8.60569M6.0243 8.70253V9.5V15.9917V16V16.3H6.50105H9H9.05198L9.05199 15.991M6.0243 1.70534L6.25499 1.81996L6.72248 2.05222C7.90219 2.63836 8.8103 2.3118 10.0809 1.85487C10.2808 1.78301 10.4896 1.70792 10.7098 1.63266L10.7099 1.63263C10.7179 1.62988 10.726 1.62712 10.734 1.62437L10.6518 1.38353L10.7342 1.62432C10.8172 1.5959 10.9001 1.56723 10.9828 1.53859C11.6359 1.31266 12.2808 1.08956 12.9178 1.01873C13.6823 0.933739 14.4393 1.06299 15.2639 1.5753L15.5 1.72201V1.68213L6.0243 1.70534ZM6.0243 1.70534V1.425V0.633333V0.500112L6.20736 0.500229L6.41031 0.500387L6.47524 0.500439L6.49325 0.500453L6.49798 0.500457L6.49919 0.500458L6.49949 0.500458L6.49957 0.500458H6.49959L6.49974 0.316667L6.5 0.000458341M6.0243 1.70534L9.07718 16.3M9.05199 15.991C9.10014 15.991 9.14769 16.0013 9.19126 16.0211C9.23483 16.0409 9.27334 16.0698 9.30406 16.1057M9.05199 15.991L9.05308 16.3H9.06444H9.0766L9.30406 16.1057M9.07718 16.3H9.25648L9.40611 16.5083L9.90611 17.2045L10 17.3352V17.495V17.4955V17.4961V17.5658L10.0823 17.4955L10.0827 17.4951L10.3189 17.2935M9.07718 16.3L9.30406 16.1057M9.07718 16.3L10.3939 17.4955C10.394 17.4218 10.3674 17.3503 10.3189 17.2935M10.3189 17.2935L10.0829 17.4951L10.0824 17.4955L10 17.5659V18.2V18.5H10.0665C10.0442 18.5 10.0215 18.5046 10 18.5142V18.5992V18.6833V18.7H9.5H0.8H0.327366H0.3V18.6962V18.6833V18.2V17.4961V17.4866V17.4861V17.2882L0.447423 17.1416L1.14742 16.4455L1.2937 16.3H1.31628L1.09036 16.1065L1.31685 16.3H1.32946H1.34221H1.34227H1.5H4.00007H4.36957V15.9917V15.991V8.3125V8V0.633333V0.50053C4.32344 0.500777 4.2712 0.501086 4.22053 0.501399L4.06921 0.502365L4.02128 0.502684L4.00805 0.502773L4.00458 0.502797L4.0037 0.502803L4.00348 0.502804L4.00343 0.502805L4.00341 0.502805L4.00214 0.316667L4 0.00281625M10.3189 17.2935L9.30406 16.1057M4 0.00281625H4.5V0.00334377V0.00387244V0.00440224V0.00493317V0.00546522V0.00599839V0.00653269V0.00706809V0.0076046V0.00814221V0.00868091V0.00922071V0.0097616V0.0103036V0.0108466V0.0113907V0.0119359V0.0124822V0.0130295V0.0135779V0.0141273V0.0146777V0.0152292V0.0157818V0.0163354V0.0168899V0.0174456V0.0180022V0.0185598V0.0191185V0.0196781V0.0202388V0.0208004V0.0213631V0.0219267V0.0224913V0.0230568V0.0236234V0.0241909V0.0247593V0.0253288V0.0258991V0.0264704V0.0270427V0.0276159V0.02819V0.028765V0.029341V0.0299179V0.0304957V0.0310744V0.031654V0.0322345V0.0328159V0.0333982V0.0339814V0.0345654V0.0351503V0.0357361V0.0363228V0.0369103V0.0374987V0.0380879V0.038678V0.0392689V0.0398606V0.0404532V0.0410466V0.0416409V0.0422359V0.0428318V0.0434284V0.0440259V0.0446242V0.0452233V0.0458231V0.0464237V0.0470252V0.0476274V0.0482303V0.0488341V0.0494385V0.0500438V0.0506498V0.0512565V0.051864V0.0524722V0.0530812V0.0536909V0.0543013V0.0549124V0.0555242V0.0561368V0.05675V0.057364V0.0579786V0.058594V0.05921V0.0598267V0.0604441V0.0610621V0.0616808V0.0623002V0.0629202V0.0635409V0.0641622V0.0647842V0.0654068V0.06603V0.0666539V0.0672784V0.0679035V0.0685292V0.0691556V0.0697825V0.07041V0.0710382V0.0716669V0.0722962V0.0729261V0.0735565V0.0741876V0.0748192V0.0754514V0.0760841V0.0767174V0.0773512V0.0779855V0.0786204V0.0792559V0.0798918V0.0805283V0.0811653V0.0818029V0.0824409V0.0830794V0.0837185V0.084358V0.084998V0.0856385V0.0862795V0.086921V0.0875629V0.0882053V0.0888482V0.0894915V0.0901353V0.0907796V0.0914242V0.0920693V0.0927149V0.0933608V0.0940072V0.0946541V0.0953013V0.0959489V0.096597V0.0972454V0.0978943V0.0985435V0.0991931V0.0998431V0.100494V0.101144V0.101795V0.102447V0.103099V0.103751V0.104403V0.105056V0.10571V0.106363V0.107017V0.107671V0.108326V0.108981V0.109636V0.110291V0.110947V0.111603V0.112259V0.112916V0.113573V0.11423V0.114888V0.115546V0.116204V0.116862V0.11752V0.118179V0.118838V0.119497V0.120157V0.120817V0.121477V0.122137V0.122797V0.123458V0.124118V0.12478V0.125441V0.126102V0.126764V0.127425V0.128087V0.12875V0.129412V0.130074V0.130737V0.1314V0.132063V0.132726V0.133333H4.86957H5.5243H5.85035H6V0.132714V0.131905V0.131096V0.130289V0.129482V0.128677V0.127872V0.127068V0.126265V0.125463V0.124662V0.123862V0.123064V0.122266V0.121469V0.120673V0.119879V0.119085V0.118293V0.117502V0.116712V0.115923V0.115135V0.114349V0.113564V0.11278V0.111997V0.111216V0.110436V0.109657V0.108879V0.108103V0.107328V0.106555V0.105783V0.105013V0.104244V0.103476V0.10271V0.101945V0.101182V0.100421V0.0996604V0.0989019V0.0981449V0.0973896V0.0966358V0.0958837V0.0951332V0.0943844V0.0936372V0.0928917V0.092148V0.091406V0.0906657V0.0899272V0.0891904V0.0884555V0.0877223V0.086991V0.0862615V0.0855339V0.0848082V0.0840844V0.0833625V0.0826425V0.0819244V0.0812084V0.0804943V0.0797822V0.0790721V0.0783641V0.0776581V0.0769541V0.0762523V0.0755526V0.0748549V0.0741594V0.0734661V0.0727749V0.072086V0.0713992V0.0707146V0.0700323V0.0693522V0.0686744V0.0679989V0.0673257V0.0666548V0.0659863V0.0653201V0.0646562V0.0639948V0.0633358V0.0626792V0.062025V0.0613733V0.0607241V0.0600774V0.0594332V0.0587915V0.0581523V0.0575157V0.0568817V0.0562503V0.0556214V0.0549953V0.0543717V0.0537508V0.0531326V0.0525171V0.0519043V0.0512943V0.050687V0.0500824V0.0494807V0.0488817V0.0482855V0.0476922V0.0471017V0.0465141V0.0459294V0.0453476V0.0447687V0.0441927V0.0436197V0.0430496V0.0424825V0.0419185V0.0413574V0.0407994V0.0402444V0.0396925V0.0391437V0.038598V0.0380555V0.037516V0.0369797V0.0364466V0.0359167V0.03539V0.0348665V0.0343462V0.0338292V0.0333155V0.0328051V0.032298V0.0317942V0.0312937V0.0307966V0.0303029V0.0298126V0.0293256V0.0288422V0.0283621V0.0278855V0.0274124V0.0269428V0.0264767V0.0260141V0.0255551V0.0250997V0.0246478V0.0241995V0.0237548V0.0233138V0.0228764V0.0224427V0.0220127V0.0215863V0.0211637V0.0207448V0.0203297V0.0199183V0.0195107V0.0191069V0.0187069V0.0183108V0.0179185V0.0175301V0.0171456V0.016765V0.0163883V0.0160155V0.0156467V0.0152819V0.014921V0.0145642V0.0142114V0.0138626V0.0135179V0.0131772V0.0128407V0.0125082V0.0121799V0.0118557V0.0115357V0.0112198V0.0109082V0.0106007V0.0102975V0.00999851V0.00970379V0.00941335V0.0091272V0.00884537V0.00856787V0.00829471V0.00802591V0.00776149V0.00750147V0.00724587V0.00699469V0.00674796V0.0065057V0.00626792V0.00603464V0.00580587V0.00558164V0.00536195V0.00514683V0.0049363V0.00473037V0.00452905V0.00433237V0.00414035V0.00395299V0.00377031V0.00359234V0.00341909V0.00325058V0.00308682V0.00292783V0.00277363V0.00262423V0.00247966V0.00233992V0.00220504V0.00207504V0.00194992V0.00182971V0.00171443V0.00160408V0.0014987V0.00139829V0.00130287V0.00121246V0.00112707V0.00104673V0.000971449V0.000901245V0.000836135V0.000776136V0.000721265V0.000671539V0.000626975V0.00058759V0.000553402V0.000524426V0.000500681V0.000482183V0.000468949V0.000460996L6.5 0.000458341M4 0.00281625V0.316667V8V15.991M4 0.00281625C4 0.00281625 4.41318 0 4.5 0H5.85035L6.5 0.000458341M6.5 0.000458341V0.316667L4 15.991M4 15.991L1.3422 15.9917C1.29405 15.9917 1.2465 16.0019 1.20293 16.0218C1.15936 16.0416 1.12084 16.0704 1.09013 16.1063L4 15.991ZM5.5243 16.4917H6V16.5018L6.50176 16.5L8.9759 16.4913L9 16.5195L9.14851 16.6933L9.70724 17.3473L9.83441 17.4961L9.89386 17.5657V18.2V18.5H9.5H0.8H0.5V18.2V17.5667L0.560319 17.4961L0.671077 17.3665L1.31447 16.6134L1.41854 16.4916L1.5 16.4916L4.00012 16.491L4.36957 16.4909V16.4917H4.86957H5.5243ZM9.89386 17.4955V17.4961V17.4955Z" fill="#778491" stroke="#778491"/>
</svg>
