<svg width="20" height="18" viewBox="0 0 20 18" fill="none" xmlns="http://www.w3.org/2000/svg">
<path d="M18.5127 6.97461C18.5127 5.09961 17.0127 3.59961 15.1377 3.59961C14.7627 3.59961 14.4252 3.67461 14.0877 3.78711C13.2252 2.43711 11.6877 1.53711 9.9627 1.53711C8.2377 1.53711 6.7377 2.43711 5.8377 3.78711C5.5002 3.67461 5.1627 3.59961 4.8252 3.59961C2.9502 3.59961 1.4502 5.09961 1.4502 6.97461C1.4502 9.29961 2.8002 10.1996 2.8002 10.1996V16.3871C2.8002 16.4246 2.8377 16.4246 2.8377 16.4246H16.3752C16.4127 16.4246 16.4127 16.3871 16.4127 16.3871V10.2371C16.4502 10.2371 18.5127 9.37461 18.5127 6.97461Z" stroke="#778491" stroke-width="1.2" stroke-miterlimit="10"/>
<path d="M2.83789 10.2363H8.72539" stroke="#778491" stroke-width="1.2" stroke-miterlimit="10"/>
<path d="M2.83789 12.6738H16.4504" stroke="#778491" stroke-width="1.2" stroke-miterlimit="10"/>
<path d="M6.0625 3.86133C7.9 4.08633 9.2125 5.73633 9.025 7.57383" stroke="#778491" stroke-width="1.2" stroke-miterlimit="10"/>
<path d="M14.8373 3.63672C14.0123 3.74922 13.2623 4.12422 12.7373 4.72422" stroke="#778491" stroke-width="1.2" stroke-miterlimit="10"/>
<path d="M6.85059 14.6621H7.78809" stroke="#778491" stroke-width="1.2" stroke-miterlimit="10"/>
<path d="M8.5 14.6621H9.4375" stroke="#778491" stroke-width="1.2" stroke-miterlimit="10"/>
<path d="M10.1504 14.6621H11.0879" stroke="#778491" stroke-width="1.2" stroke-miterlimit="10"/>
<path d="M11.7998 14.6621H12.7373" stroke="#778491" stroke-width="1.2" stroke-miterlimit="10"/>
</svg>
