<svg width="24" height="13" viewBox="0 0 24 13" fill="none" xmlns="http://www.w3.org/2000/svg">
<path d="M4.00273 9.75819H3.00182C1.90082 9.75819 1 8.85737 1 7.75637V5.82461C1 5.154 1.3303 4.53344 1.89081 4.1631L4.00273 2.75182L5.41402 1.34054C5.79436 0.960191 6.29482 0.75 6.8253 0.75H14.172C14.7025 0.75 15.2129 0.960191 15.5833 1.34054L18.9964 4.75364L21.4886 5.3742C22.3794 5.5944 23 6.39513 23 7.31597V8.75728C23 9.30778 22.5496 9.75819 21.9991 9.75819H20.9982" stroke="#778491" stroke-width="1.00091" stroke-linecap="round" stroke-linejoin="round"/>
<path d="M17.014 9.75977H8.00586" stroke="#778491" stroke-width="1.00091" stroke-linecap="round" stroke-linejoin="round"/>
<path d="M19.0165 11.7595C20.122 11.7595 21.0183 10.8633 21.0183 9.75768C21.0183 8.6521 20.122 7.75586 19.0165 7.75586C17.9109 7.75586 17.0146 8.6521 17.0146 9.75768C17.0146 10.8633 17.9109 11.7595 19.0165 11.7595Z" stroke="#778491" stroke-width="1.00091" stroke-linecap="round" stroke-linejoin="round"/>
<path d="M6.00475 11.7595C7.11032 11.7595 8.00657 10.8633 8.00657 9.75768C8.00657 8.6521 7.11032 7.75586 6.00475 7.75586C4.89918 7.75586 4.00293 8.6521 4.00293 9.75768C4.00293 10.8633 4.89918 11.7595 6.00475 11.7595Z" stroke="#778491" stroke-width="1.00091" stroke-linecap="round" stroke-linejoin="round"/>
<path d="M19.0163 4.75182H15.0126C14.4621 4.75182 14.0117 4.30141 14.0117 3.75091V2.75" stroke="#778491" stroke-width="1.00091" stroke-linecap="round" stroke-linejoin="round"/>
<path d="M11.0095 4.75195H7.00586" stroke="#778491" stroke-width="1.00091" stroke-linecap="round" stroke-linejoin="round"/>
</svg>
