<svg width="16" height="17" viewBox="0 0 16 17" fill="none" xmlns="http://www.w3.org/2000/svg">
<path fill-rule="evenodd" clip-rule="evenodd" d="M11.2588 0.209251C11.1256 0.0752722 10.9449 0 10.7565 0C10.5681 0 10.3874 0.0752722 10.2542 0.209251L1.54754 8.9657C1.45829 9.05543 1.39444 9.16745 1.36255 9.29024L0.415386 12.9372C0.351652 13.1825 0.422064 13.4435 0.600385 13.6228C0.778707 13.8022 1.03822 13.8731 1.28222 13.809L4.90835 12.8564C5.03047 12.8243 5.14188 12.7601 5.23113 12.6702L13.9378 3.91389C14.2152 3.63488 14.2152 3.18253 13.9378 2.90353L11.2588 0.209251ZM2.68844 9.83892L10.7565 1.72478L12.4309 3.40871L4.3628 11.5229L2.09648 12.1182L2.68844 9.83892Z" fill="white"/>
<path d="M0.710369 15.2411C0.318047 15.2411 0 15.561 0 15.9556C0 16.3501 0.318047 16.67 0.710369 16.67H14.9178C15.3101 16.67 15.6281 16.3501 15.6281 15.9556C15.6281 15.561 15.3101 15.2411 14.9178 15.2411H0.710369Z" fill="white"/>
</svg>
