<svg width="18" height="18" viewBox="0 0 18 18" fill="none" xmlns="http://www.w3.org/2000/svg">
<path d="M13.756 8.00376C13.8896 8.1247 16.5235 8.4186 17.0564 8.83204C17.3714 9.07673 17.4853 9.46907 17.5303 10.6517C17.5753 11.8344 17.5458 12.6345 17.5008 12.9017C17.4769 13.048 17.2617 13.6006 16.9242 13.6709C16.5685 13.7455 1.41612 13.7005 1.17847 13.7005C0.942217 13.7005 0.452843 13.183 0.468311 12.8131C0.48378 12.4433 0.48378 9.17235 0.497841 8.87704C0.511904 8.58173 1.13487 8.27095 1.32612 8.15141C1.51878 8.03329 1.88862 7.3372 2.1544 6.98282C2.35409 6.71704 3.29347 5.62157 4.24128 5.16313C5.04003 4.77641 5.75019 4.63016 7.57128 4.64563C9.27284 4.6597 10.4274 4.82282 11.3302 5.43032C12.233 6.03782 13.6083 7.87016 13.756 8.00376Z" fill="#FFD61C"/>
<path d="M17.1689 11.0583C17.1689 11.0583 16.3632 11.0709 16.2535 11.0386C16.0313 10.9725 15.6249 9.86153 15.795 9.70966C15.8654 9.64778 16.9679 9.67309 16.9679 9.67309L17.1689 11.0583Z" fill="white"/>
<path d="M17.542 11.0584L16.995 11.0598L16.964 9.67188L17.4548 9.67328C17.4548 9.67328 17.5223 10.1655 17.5321 10.4158C17.542 10.6647 17.542 11.0584 17.542 11.0584Z" fill="#FEEAD0"/>
<path d="M9.84961 4.83316H5.19633C5.19633 4.83316 5.78555 3.15269 5.94867 3.0655C6.04711 3.01207 9.0818 3.05004 9.15352 3.088C9.33492 3.18785 9.84961 4.83316 9.84961 4.83316Z" fill="#9A9A9A"/>
<path d="M13.3386 8.87871C13.198 9.01934 12.689 9.01512 11.6399 9.03902C10.5908 9.06152 3.23614 9.09668 3.12223 9.06152C3.00833 9.02637 2.35864 8.27402 2.33473 8.07012C2.31223 7.8648 3.60176 6.02824 4.55239 5.60355C5.42708 5.21262 8.86676 4.99465 10.3025 5.55012C11.1997 5.89605 12.2432 6.9873 12.9393 7.91121C13.2219 8.28527 13.5088 8.70855 13.3386 8.87871Z" fill="#536F7D"/>
<path d="M7.3853 5.85773C7.3853 5.85773 8.04765 5.81976 8.75921 5.86898C9.3189 5.90695 9.92218 5.98429 10.4298 6.2796C11.5816 6.95179 12.2889 8.09226 12.22 8.25257C12.1511 8.41288 12.0147 8.51554 10.8292 8.52679C9.64374 8.53804 7.45421 8.53382 7.42468 8.50148C7.42468 8.46632 7.3853 5.85773 7.3853 5.85773Z" fill="#AFE3FB"/>
<path d="M12.6479 9.40586C12.6086 9.50852 12.2697 9.73492 11.5904 9.68992C11.0364 9.65195 10.9 9.1232 10.8718 8.7393C10.8339 8.21617 11.2051 7.9082 11.2051 7.9082C11.2051 7.9082 11.634 8.03477 11.6523 8.0657C11.6706 8.09664 12.5973 9.02336 12.5973 9.02336C12.5973 9.02336 12.6986 9.27367 12.6479 9.40586Z" fill="#DD801B"/>
<path d="M11.9489 9.24944C11.4005 9.23116 10.9224 8.23553 11.1432 7.95147C11.3639 7.66741 11.8674 7.94022 12.1514 8.24678C12.5354 8.66303 12.5986 9.02163 12.5986 9.02163C12.5986 9.02163 12.5143 9.26913 11.9489 9.24944Z" fill="#FFD61C"/>
<path d="M6.73356 5.86707C6.73356 5.86707 6.7434 8.49253 6.73918 8.49394C6.61965 8.51503 3.42043 8.5066 3.38809 8.48128C3.35715 8.45597 3.00981 8.07769 3.00981 8.01582C3.00981 7.95253 3.89715 6.59269 4.76762 6.1455C5.39059 5.82488 6.73356 5.86707 6.73356 5.86707Z" fill="#AFE3FB"/>
<path d="M0.48531 9.35803C0.48531 9.35803 1.26578 9.31162 1.37687 9.38615C1.52031 9.48459 1.49781 10.8472 1.34172 10.9232C1.18703 10.9977 0.479686 10.9358 0.479686 10.9358C0.479686 10.9358 0.476873 10.5224 0.476873 10.1076C0.476873 9.59006 0.48531 9.35803 0.48531 9.35803Z" fill="#FF2825"/>
<path d="M11.8506 10.998H10.9281V11.9515H11.8506V10.998Z" fill="#4E433D"/>
<path d="M10.9326 10.0488H10.0101V11.0023H10.9326V10.0488Z" fill="#4E433D"/>
<path d="M10.0098 10.998H9.08727V11.9515H10.0098V10.998Z" fill="#4E433D"/>
<path d="M9.0918 10.043H8.1693V10.9964H9.0918V10.043Z" fill="#4E433D"/>
<path d="M8.17969 10.9922H7.25719V11.9456H8.17969V10.9922Z" fill="#4E433D"/>
<path d="M7.26562 10.041H6.34313V10.9945H7.26562V10.041Z" fill="#4E433D"/>
<path d="M6.35059 10.9863H5.42809V11.9398H6.35059V10.9863Z" fill="#4E433D"/>
<path d="M15.4958 13.2623C15.4832 14.0386 14.8644 15.1551 13.5172 15.1636C12.17 15.172 11.4711 14.1398 11.5133 13.0823C11.5569 12.008 12.3922 11.2486 13.5946 11.2823C14.7196 11.3161 15.5127 12.188 15.4958 13.2623Z" fill="#4E433D"/>
<path d="M14.5575 13.1959C14.5504 13.6051 14.2185 14.1943 13.4943 14.1986C12.7701 14.2028 12.42 13.6895 12.4425 13.1326C12.4664 12.5659 12.929 12.144 13.5365 12.1525C14.1412 12.1623 14.5673 12.6292 14.5575 13.1959Z" fill="#C8C8C8"/>
<path d="M5.55051 13.3275C5.53786 14.0981 4.93317 15.2062 3.6141 15.2147C2.29504 15.2231 1.61161 14.1994 1.65239 13.1503C1.69457 12.083 2.51161 11.3306 3.68864 11.3644C4.78973 11.3953 5.56739 12.2602 5.55051 13.3275Z" fill="#4E433D"/>
<path d="M4.6698 13.2662C4.66277 13.6754 4.33089 14.2647 3.60667 14.2689C2.88246 14.2731 2.5323 13.7598 2.5548 13.2029C2.5787 12.6362 3.04136 12.2143 3.64886 12.2228C4.25214 12.2326 4.67824 12.6995 4.6698 13.2662Z" fill="#C8C8C8"/>
</svg>
